<svg xmlns="http://www.w3.org/2000/svg" viewBox="0 0 322.8 535" fill="currentColor" aria-hidden="true">
  <path d="M241.7,432.5l.5-.9h0l-.5.9ZM166.5,146.6l-.4-.9-.8.3.2.8,1-.2h0ZM166.8,146.5l.4.9.8-.3-.2-.8-1,.2h0ZM121.1,6.1l-.2-1h0l.2,1ZM59.8,20.3l-.2-1h0l.2,1ZM47.5,29.8l.9.5h0l-.9-.5ZM34.7,51.5l.8.6h0l-.8-.6ZM13.4,71.8l-.6-.8h0l.6.8ZM70.6,111.4l1-.2-.2-1-1,.2.2,1ZM313.2,486.7h-1v.2h0l1-.2ZM308.4,436.4h-1,1ZM302.8,431.8v-1c-7.2.8-20.3,2.2-32.7,2.8-6.2.3-12.2.4-17.2,0-2.5-.1-4.7-.4-6.5-.7-1.8-.4-3.2-.8-4.2-1.4l-.5.9-.5.9c1.2.7,2.9,1.2,4.8,1.6,1.9.4,4.2.6,6.8.8,5.1.3,11.2.2,17.4,0,12.5-.6,25.7-2,32.7-2.8v-1h-.1ZM241.7,432.5l.5-.9c-10.1-5.9-17.2-18-21.2-36.6l-1,.2-1,.2c4,18.8,11.3,31.5,22.1,37.9l.5-.9h0ZM220.1,395.2l1-.2-53.6-248.7-1,.2-1,.2,53.6,248.7,1-.2h0ZM166.5,146.6l.4.9h.2c0-.1-.4-1-.4-1l-.4-.9h-.2c0,.1.4,1,.4,1ZM166.8,146.5l1-.2-27.8-128.7-1,.2-1,.2,27.7,128.7,1-.2h0ZM139.1,17.8l1-.2c-1.9-8.7-10.4-14.3-19.1-12.4l.2,1,.2,1c7.6-1.6,15.1,3.2,16.7,10.9l1-.2h0ZM121.1,6.1l-.2-1-61.3,14.2.2,1,.2,1,61.4-14.2-.2-1h-.1ZM59.8,20.3l-.2-1c-5.5,1.3-10.3,4.9-13,10l.9.5.9.5c2.4-4.5,6.7-7.8,11.7-9l-.2-1h-.1ZM47.5,29.8l-.9-.5c-3.4,6.5-8.3,15.5-12.7,21.5l.8.6.8.6c4.4-6.2,9.4-15.3,12.8-21.8l-.9-.5h.1ZM34.7,51.5l-.8-.6c-7,9.8-15.6,16.5-21.1,20.1l.6.8.6.8c5.6-3.7,14.4-10.6,21.6-20.6l-.8-.6h-.1ZM13.4,71.8l-.6-.8c-3.6,2.4-5.1,7.2-4.1,11.9l1-.2,1-.2c-.9-4.1.5-8,3.3-9.8l-.6-.8h0ZM9.7,82.7l-1,.2,6.4,29.8,1-.2,1-.2-6.4-29.8s-1,.2-1,.2ZM16.1,112.5l-1,.2c1.3,6,6.4,10.2,11.8,9.1l-.2-1-.2-1c-3.9.9-8.3-2.3-9.4-7.5,0,0-1,.2-1,.2ZM26.7,120.8l.2,1,43.9-9.5-.2-1-.2-1-43.9,9.5.2,1ZM70.6,111.4l-1,.2,65.3,303.3,1-.2,1-.2L71.6,111.2l-1,.2ZM135.9,414.6l-1,.2c8.8,41,24.4,68.6,46.9,82.2l.5-.9.5-.9c-21.8-13.3-37.2-40.1-46-80.9l-1,.2h.1ZM182.3,496.2l-.5.9c22.5,13.6,53,16.2,91.4,8l-.2-1-.2-1c-38.2,8.2-68.1,5.6-90-7.7l-.5.9h0ZM273,504.1l.2,1,33.6-7.2-.2-1-.2-1-33.6,7.2.2,1ZM306.6,496.8l.2,1c5.1-1.1,8.4-6.2,7.3-11.3l-1,.2-1,.2c.9,4.1-1.7,8.1-5.7,8.9l.2,1h0ZM313.2,486.7h1l-4.8-50.3h-1l-1,.2,4.8,50.2h1ZM308.4,436.4h1c-.3-3.5-3.4-6-6.8-5.6v1c.1,0,.2,1,.2,1,2.3-.3,4.3,1.4,4.5,3.7h1.1Z"/>
</svg>
